<?xml version="1.0" encoding="utf-8"?>
<?xml-stylesheet type="text/css" href="../css/index.css"?>
<!-- Generator: Adobe Illustrator 18.1.1, SVG Export Plug-In . SVG Version: 6.00 Build 0)  -->
<svg version="1.1" id="レイヤー_1" xmlns="http://www.w3.org/2000/svg" xmlns:xlink="http://www.w3.org/1999/xlink" x="0px"
	 y="0px" viewBox="0 0 730 195" enable-background="new 0 0 730 195" xml:space="preserve">
<g>
	<path class='path' d="M19.3,21.1H12v-7.3h7.3V21.1z M19.3,35.9H12v-7.3h7.3V35.9z M19.3,50.7H12v-7.3h7.3V50.7z M19.3,65.5H12v-7.3h7.3V65.5z
		 M19.3,80.3H12V73h7.3V80.3z M19.3,95.1H12v-7.3h7.3V95.1z M19.3,109.9H12v-7.3h7.3V109.9z M19.3,124.7H12v-7.5h7.3V124.7z
		 M19.3,139.3H12V132h7.3V139.3z M19.3,154.1H12v-7.3h7.3V154.1z M19.3,168.9H12v-7.3h7.3V168.9z M19.3,183.7H12v-7.3h7.3V183.7z
		 M34.1,21.1h-7.3v-7.3h7.3V21.1z M34.1,35.9h-7.3v-7.3h7.3V35.9z M34.1,50.7h-7.3v-7.3h7.3V50.7z M34.1,65.5h-7.3v-7.3h7.3V65.5z
		 M34.1,80.3h-7.3V73h7.3V80.3z M34.1,95.1h-7.3v-7.3h7.3V95.1z M34.1,109.9h-7.3v-7.3h7.3V109.9z M34.1,124.7h-7.3v-7.5h7.3V124.7z
		 M34.1,139.3h-7.3V132h7.3V139.3z M34.1,154.1h-7.3v-7.3h7.3V154.1z M34.1,168.9h-7.3v-7.3h7.3V168.9z M34.1,183.7h-7.3v-7.3h7.3
		V183.7z M48.9,21.1h-7.3v-7.3h7.3V21.1z M48.9,35.9h-7.3v-7.3h7.3V35.9z M48.9,50.7h-7.3v-7.3h7.3V50.7z M48.9,65.5h-7.3v-7.3h7.3
		V65.5z M48.9,80.3h-7.3V73h7.3V80.3z M48.9,95.1h-7.3v-7.3h7.3V95.1z M48.9,109.9h-7.3v-7.3h7.3V109.9z M48.9,124.7h-7.3v-7.5h7.3
		V124.7z M48.9,139.3h-7.3V132h7.3V139.3z M48.9,154.1h-7.3v-7.3h7.3V154.1z M48.9,168.9h-7.3v-7.3h7.3V168.9z M48.9,183.7h-7.3
		v-7.3h7.3V183.7z M63.7,21.1h-7.3v-7.3h7.3V21.1z M63.7,35.9h-7.3v-7.3h7.3V35.9z M63.7,95.1h-7.3v-7.3h7.3V95.1z M63.7,109.9h-7.3
		v-7.3h7.3V109.9z M63.7,168.9h-7.3v-7.3h7.3V168.9z M63.7,183.7h-7.3v-7.3h7.3V183.7z M78.5,21.1h-7.3v-7.3h7.3V21.1z M78.5,35.9
		h-7.3v-7.3h7.3V35.9z M78.5,50.7h-7.3v-7.3h7.3V50.7z M78.5,65.5h-7.3v-7.3h7.3V65.5z M78.5,80.3h-7.3V73h7.3V80.3z M78.5,95.1
		h-7.3v-7.3h7.3V95.1z M78.5,109.9h-7.3v-7.3h7.3V109.9z M78.5,124.7h-7.3v-7.5h7.3V124.7z M78.5,139.3h-7.3V132h7.3V139.3z
		 M78.5,154.1h-7.3v-7.3h7.3V154.1z M78.5,168.9h-7.3v-7.3h7.3V168.9z M78.5,183.7h-7.3v-7.3h7.3V183.7z M93.3,21.1H86v-7.3h7.3
		V21.1z M93.3,35.9H86v-7.3h7.3V35.9z M93.3,50.7H86v-7.3h7.3V50.7z M93.3,65.5H86v-7.3h7.3V65.5z M93.3,80.3H86V73h7.3V80.3z
		 M93.3,95.1H86v-7.3h7.3V95.1z M93.3,109.9H86v-7.3h7.3V109.9z M93.3,124.7H86v-7.5h7.3V124.7z M93.3,139.3H86V132h7.3V139.3z
		 M93.3,154.1H86v-7.3h7.3V154.1z M93.3,168.9H86v-7.3h7.3V168.9z M93.3,183.7H86v-7.3h7.3V183.7z M108,35.9h-7.3v-7.3h7.3V35.9z
		 M108,50.7h-7.3v-7.3h7.3V50.7z M108,65.5h-7.3v-7.3h7.3V65.5z M108,80.3h-7.3V73h7.3V80.3z M108,124.7h-7.3v-7.5h7.3V124.7z
		 M108,139.3h-7.3V132h7.3V139.3z M108,154.1h-7.3v-7.3h7.3V154.1z M108,168.9h-7.3v-7.3h7.3V168.9z"/>
	<path class='path' d="M130.1,35.9h-7.3v-7.3h7.3V35.9z M130.1,50.7h-7.3v-7.3h7.3V50.7z M130.1,65.5h-7.3v-7.3h7.3V65.5z M130.1,80.3h-7.3V73
		h7.3V80.3z M130.1,95.1h-7.3v-7.3h7.3V95.1z M130.1,109.9h-7.3v-7.3h7.3V109.9z M130.1,124.7h-7.3v-7.5h7.3V124.7z M130.1,139.3
		h-7.3V132h7.3V139.3z M130.1,154.1h-7.3v-7.3h7.3V154.1z M130.1,168.9h-7.3v-7.3h7.3V168.9z M130.1,183.7h-7.3v-7.3h7.3V183.7z
		 M144.9,21.1h-7.3v-7.3h7.3V21.1z M144.9,35.9h-7.3v-7.3h7.3V35.9z M144.9,50.7h-7.3v-7.3h7.3V50.7z M144.9,65.5h-7.3v-7.3h7.3
		V65.5z M144.9,80.3h-7.3V73h7.3V80.3z M144.9,95.1h-7.3v-7.3h7.3V95.1z M144.9,109.9h-7.3v-7.3h7.3V109.9z M144.9,124.7h-7.3v-7.5
		h7.3V124.7z M144.9,139.3h-7.3V132h7.3V139.3z M144.9,154.1h-7.3v-7.3h7.3V154.1z M144.9,168.9h-7.3v-7.3h7.3V168.9z M144.9,183.7
		h-7.3v-7.3h7.3V183.7z M159.7,21.1h-7.3v-7.3h7.3V21.1z M159.7,35.9h-7.3v-7.3h7.3V35.9z M159.7,50.7h-7.3v-7.3h7.3V50.7z
		 M159.7,65.5h-7.3v-7.3h7.3V65.5z M159.7,80.3h-7.3V73h7.3V80.3z M159.7,95.1h-7.3v-7.3h7.3V95.1z M159.7,109.9h-7.3v-7.3h7.3
		V109.9z M159.7,124.7h-7.3v-7.5h7.3V124.7z M159.7,139.3h-7.3V132h7.3V139.3z M159.7,154.1h-7.3v-7.3h7.3V154.1z M159.7,168.9h-7.3
		v-7.3h7.3V168.9z M159.7,183.7h-7.3v-7.3h7.3V183.7z M174.5,21.1h-7.3v-7.3h7.3V21.1z M174.5,35.9h-7.3v-7.3h7.3V35.9z M174.5,95.1
		h-7.3v-7.3h7.3V95.1z M174.5,109.9h-7.3v-7.3h7.3V109.9z M189.3,21.1H182v-7.3h7.3V21.1z M189.3,35.9H182v-7.3h7.3V35.9z
		 M189.3,50.7H182v-7.3h7.3V50.7z M189.3,65.5H182v-7.3h7.3V65.5z M189.3,80.3H182V73h7.3V80.3z M189.3,95.1H182v-7.3h7.3V95.1z
		 M189.3,109.9H182v-7.3h7.3V109.9z M189.3,124.7H182v-7.5h7.3V124.7z M189.3,139.3H182V132h7.3V139.3z M189.3,154.1H182v-7.3h7.3
		V154.1z M189.3,168.9H182v-7.3h7.3V168.9z M189.3,183.7H182v-7.3h7.3V183.7z M204.1,21.1h-7.3v-7.3h7.3V21.1z M204.1,35.9h-7.3
		v-7.3h7.3V35.9z M204.1,50.7h-7.3v-7.3h7.3V50.7z M204.1,65.5h-7.3v-7.3h7.3V65.5z M204.1,80.3h-7.3V73h7.3V80.3z M204.1,95.1h-7.3
		v-7.3h7.3V95.1z M204.1,109.9h-7.3v-7.3h7.3V109.9z M204.1,124.7h-7.3v-7.5h7.3V124.7z M204.1,139.3h-7.3V132h7.3V139.3z
		 M204.1,154.1h-7.3v-7.3h7.3V154.1z M204.1,168.9h-7.3v-7.3h7.3V168.9z M204.1,183.7h-7.3v-7.3h7.3V183.7z M218.9,35.9h-7.3v-7.3
		h7.3V35.9z M218.9,50.7h-7.3v-7.3h7.3V50.7z M218.9,65.5h-7.3v-7.3h7.3V65.5z M218.9,80.3h-7.3V73h7.3V80.3z M218.9,95.1h-7.3v-7.3
		h7.3V95.1z M218.9,109.9h-7.3v-7.3h7.3V109.9z M218.9,124.7h-7.3v-7.5h7.3V124.7z M218.9,139.3h-7.3V132h7.3V139.3z M218.9,154.1
		h-7.3v-7.3h7.3V154.1z M218.9,168.9h-7.3v-7.3h7.3V168.9z M218.9,183.7h-7.3v-7.3h7.3V183.7z"/>
	<path class='path' d="M241,21.1h-7.3v-7.3h7.3V21.1z M241,35.9h-7.3v-7.3h7.3V35.9z M241,50.7h-7.3v-7.3h7.3V50.7z M241,65.5h-7.3v-7.3h7.3V65.5
		z M241,80.3h-7.3V73h7.3V80.3z M241,95.1h-7.3v-7.3h7.3V95.1z M241,109.9h-7.3v-7.3h7.3V109.9z M241,124.7h-7.3v-7.5h7.3V124.7z
		 M241,139.3h-7.3V132h7.3V139.3z M241,154.1h-7.3v-7.3h7.3V154.1z M241,168.9h-7.3v-7.3h7.3V168.9z M241,183.7h-7.3v-7.3h7.3V183.7
		z M255.8,21.1h-7.3v-7.3h7.3V21.1z M255.8,35.9h-7.3v-7.3h7.3V35.9z M255.8,50.7h-7.3v-7.3h7.3V50.7z M255.8,65.5h-7.3v-7.3h7.3
		V65.5z M255.8,80.3h-7.3V73h7.3V80.3z M255.8,95.1h-7.3v-7.3h7.3V95.1z M255.8,109.9h-7.3v-7.3h7.3V109.9z M255.8,124.7h-7.3v-7.5
		h7.3V124.7z M255.8,139.3h-7.3V132h7.3V139.3z M255.8,154.1h-7.3v-7.3h7.3V154.1z M255.8,168.9h-7.3v-7.3h7.3V168.9z M255.8,183.7
		h-7.3v-7.3h7.3V183.7z M270.6,21.1h-7.3v-7.3h7.3V21.1z M270.6,35.9h-7.3v-7.3h7.3V35.9z M270.6,50.7h-7.3v-7.3h7.3V50.7z
		 M270.6,65.5h-7.3v-7.3h7.3V65.5z M270.6,80.3h-7.3V73h7.3V80.3z M270.6,95.1h-7.3v-7.3h7.3V95.1z M270.6,109.9h-7.3v-7.3h7.3
		V109.9z M270.6,124.7h-7.3v-7.5h7.3V124.7z M270.6,139.3h-7.3V132h7.3V139.3z M270.6,154.1h-7.3v-7.3h7.3V154.1z M270.6,168.9h-7.3
		v-7.3h7.3V168.9z M270.6,183.7h-7.3v-7.3h7.3V183.7z M285.4,21.1H278v-7.3h7.3V21.1z M285.4,35.9H278v-7.3h7.3V35.9z M300.1,21.1
		h-7.3v-7.3h7.3V21.1z M300.1,35.9h-7.3v-7.3h7.3V35.9z M300.1,50.7h-7.3v-7.3h7.3V50.7z M300.1,65.5h-7.3v-7.3h7.3V65.5z
		 M300.1,80.3h-7.3V73h7.3V80.3z M300.1,95.1h-7.3v-7.3h7.3V95.1z M300.1,109.9h-7.3v-7.3h7.3V109.9z M300.1,124.7h-7.3v-7.5h7.3
		V124.7z M300.1,139.3h-7.3V132h7.3V139.3z M300.1,154.1h-7.3v-7.3h7.3V154.1z M300.1,168.9h-7.3v-7.3h7.3V168.9z M300.1,183.7h-7.3
		v-7.3h7.3V183.7z M314.9,21.1h-7.3v-7.3h7.3V21.1z M314.9,35.9h-7.3v-7.3h7.3V35.9z M314.9,50.7h-7.3v-7.3h7.3V50.7z M314.9,65.5
		h-7.3v-7.3h7.3V65.5z M314.9,80.3h-7.3V73h7.3V80.3z M314.9,95.1h-7.3v-7.3h7.3V95.1z M314.9,109.9h-7.3v-7.3h7.3V109.9z
		 M314.9,124.7h-7.3v-7.5h7.3V124.7z M314.9,139.3h-7.3V132h7.3V139.3z M314.9,154.1h-7.3v-7.3h7.3V154.1z M314.9,168.9h-7.3v-7.3
		h7.3V168.9z M314.9,183.7h-7.3v-7.3h7.3V183.7z M329.7,35.9h-7.3v-7.3h7.3V35.9z M329.7,50.7h-7.3v-7.3h7.3V50.7z M329.7,65.5h-7.3
		v-7.3h7.3V65.5z M329.7,80.3h-7.3V73h7.3V80.3z M329.7,95.1h-7.3v-7.3h7.3V95.1z M329.7,109.9h-7.3v-7.3h7.3V109.9z M329.7,124.7
		h-7.3v-7.5h7.3V124.7z M329.7,139.3h-7.3V132h7.3V139.3z M329.7,154.1h-7.3v-7.3h7.3V154.1z M329.7,168.9h-7.3v-7.3h7.3V168.9z
		 M329.7,183.7h-7.3v-7.3h7.3V183.7z"/>
	<path class='path' d="M351.8,21.1h-7.3v-7.3h7.3V21.1z M351.8,35.9h-7.3v-7.3h7.3V35.9z M351.8,50.7h-7.3v-7.3h7.3V50.7z M351.8,65.5h-7.3v-7.3
		h7.3V65.5z M351.8,80.3h-7.3V73h7.3V80.3z M351.8,95.1h-7.3v-7.3h7.3V95.1z M351.8,109.9h-7.3v-7.3h7.3V109.9z M351.8,124.7h-7.3
		v-7.5h7.3V124.7z M351.8,139.3h-7.3V132h7.3V139.3z M351.8,154.1h-7.3v-7.3h7.3V154.1z M351.8,168.9h-7.3v-7.3h7.3V168.9z
		 M351.8,183.7h-7.3v-7.3h7.3V183.7z M366.6,21.1h-7.3v-7.3h7.3V21.1z M366.6,35.9h-7.3v-7.3h7.3V35.9z M366.6,50.7h-7.3v-7.3h7.3
		V50.7z M366.6,65.5h-7.3v-7.3h7.3V65.5z M366.6,80.3h-7.3V73h7.3V80.3z M366.6,95.1h-7.3v-7.3h7.3V95.1z M366.6,109.9h-7.3v-7.3
		h7.3V109.9z M366.6,124.7h-7.3v-7.5h7.3V124.7z M366.6,139.3h-7.3V132h7.3V139.3z M366.6,154.1h-7.3v-7.3h7.3V154.1z M366.6,168.9
		h-7.3v-7.3h7.3V168.9z M366.6,183.7h-7.3v-7.3h7.3V183.7z M381.4,21.1h-7.3v-7.3h7.3V21.1z M381.4,35.9h-7.3v-7.3h7.3V35.9z
		 M381.4,50.7h-7.3v-7.3h7.3V50.7z M381.4,65.5h-7.3v-7.3h7.3V65.5z M381.4,80.3h-7.3V73h7.3V80.3z M381.4,95.1h-7.3v-7.3h7.3V95.1z
		 M381.4,109.9h-7.3v-7.3h7.3V109.9z M381.4,124.7h-7.3v-7.5h7.3V124.7z M381.4,139.3h-7.3V132h7.3V139.3z M381.4,154.1h-7.3v-7.3
		h7.3V154.1z M381.4,168.9h-7.3v-7.3h7.3V168.9z M381.4,183.7h-7.3v-7.3h7.3V183.7z M396.2,21.1h-7.3v-7.3h7.3V21.1z M396.2,35.9
		h-7.3v-7.3h7.3V35.9z M396.2,168.9h-7.3v-7.3h7.3V168.9z M396.2,183.7h-7.3v-7.3h7.3V183.7z M411,21.1h-7.3v-7.3h7.3V21.1z
		 M411,35.9h-7.3v-7.3h7.3V35.9z M411,50.7h-7.3v-7.3h7.3V50.7z M411,65.5h-7.3v-7.3h7.3V65.5z M411,80.3h-7.3V73h7.3V80.3z
		 M411,95.1h-7.3v-7.3h7.3V95.1z M411,109.9h-7.3v-7.3h7.3V109.9z M411,124.7h-7.3v-7.5h7.3V124.7z M411,139.3h-7.3V132h7.3V139.3z
		 M411,154.1h-7.3v-7.3h7.3V154.1z M411,168.9h-7.3v-7.3h7.3V168.9z M411,183.7h-7.3v-7.3h7.3V183.7z M425.8,21.1h-7.3v-7.3h7.3
		V21.1z M425.8,35.9h-7.3v-7.3h7.3V35.9z M425.8,50.7h-7.3v-7.3h7.3V50.7z M425.8,65.5h-7.3v-7.3h7.3V65.5z M425.8,80.3h-7.3V73h7.3
		V80.3z M425.8,95.1h-7.3v-7.3h7.3V95.1z M425.8,109.9h-7.3v-7.3h7.3V109.9z M425.8,124.7h-7.3v-7.5h7.3V124.7z M425.8,139.3h-7.3
		V132h7.3V139.3z M425.8,154.1h-7.3v-7.3h7.3V154.1z M425.8,168.9h-7.3v-7.3h7.3V168.9z M425.8,183.7h-7.3v-7.3h7.3V183.7z
		 M440.6,35.9h-7.3v-7.3h7.3V35.9z M440.6,50.7h-7.3v-7.3h7.3V50.7z M440.6,65.5h-7.3v-7.3h7.3V65.5z M440.6,80.3h-7.3V73h7.3V80.3z
		 M440.6,95.1h-7.3v-7.3h7.3V95.1z M440.6,109.9h-7.3v-7.3h7.3V109.9z M440.6,124.7h-7.3v-7.5h7.3V124.7z M440.6,139.3h-7.3V132h7.3
		V139.3z M440.6,154.1h-7.3v-7.3h7.3V154.1z M440.6,168.9h-7.3v-7.3h7.3V168.9z"/>
	<path class='path' d="M462.7,21.1h-7.3v-7.3h7.3V21.1z M462.7,35.9h-7.3v-7.3h7.3V35.9z M462.7,50.7h-7.3v-7.3h7.3V50.7z M462.7,65.5h-7.3v-7.3
		h7.3V65.5z M462.7,80.3h-7.3V73h7.3V80.3z M462.7,95.1h-7.3v-7.3h7.3V95.1z M462.7,109.9h-7.3v-7.3h7.3V109.9z M462.7,124.7h-7.3
		v-7.5h7.3V124.7z M462.7,139.3h-7.3V132h7.3V139.3z M462.7,154.1h-7.3v-7.3h7.3V154.1z M462.7,168.9h-7.3v-7.3h7.3V168.9z
		 M462.7,183.7h-7.3v-7.3h7.3V183.7z M477.5,21.1h-7.3v-7.3h7.3V21.1z M477.5,35.9h-7.3v-7.3h7.3V35.9z M477.5,50.7h-7.3v-7.3h7.3
		V50.7z M477.5,65.5h-7.3v-7.3h7.3V65.5z M477.5,80.3h-7.3V73h7.3V80.3z M477.5,95.1h-7.3v-7.3h7.3V95.1z M477.5,109.9h-7.3v-7.3
		h7.3V109.9z M477.5,124.7h-7.3v-7.5h7.3V124.7z M477.5,139.3h-7.3V132h7.3V139.3z M477.5,154.1h-7.3v-7.3h7.3V154.1z M477.5,168.9
		h-7.3v-7.3h7.3V168.9z M477.5,183.7h-7.3v-7.3h7.3V183.7z M492.2,21.1h-7.3v-7.3h7.3V21.1z M492.2,35.9h-7.3v-7.3h7.3V35.9z
		 M492.2,50.7h-7.3v-7.3h7.3V50.7z M492.2,65.5h-7.3v-7.3h7.3V65.5z M492.2,80.3h-7.3V73h7.3V80.3z M492.2,95.1h-7.3v-7.3h7.3V95.1z
		 M492.2,109.9h-7.3v-7.3h7.3V109.9z M492.2,124.7h-7.3v-7.5h7.3V124.7z M492.2,139.3h-7.3V132h7.3V139.3z M492.2,154.1h-7.3v-7.3
		h7.3V154.1z M492.2,168.9h-7.3v-7.3h7.3V168.9z M492.2,183.7h-7.3v-7.3h7.3V183.7z"/>
	<path class='path' d="M517.7,21.1h-7.3v-7.3h7.3V21.1z M517.7,35.9h-7.3v-7.3h7.3V35.9z M532.5,21.1h-7.3v-7.3h7.3V21.1z M532.5,35.9h-7.3v-7.3
		h7.3V35.9z M547.3,21.1H540v-7.3h7.3V21.1z M547.3,35.9H540v-7.3h7.3V35.9z M547.3,50.7H540v-7.3h7.3V50.7z M547.3,65.5H540v-7.3
		h7.3V65.5z M547.3,80.3H540V73h7.3V80.3z M547.3,95.1H540v-7.3h7.3V95.1z M547.3,109.9H540v-7.3h7.3V109.9z M547.3,124.7H540v-7.5
		h7.3V124.7z M547.3,139.3H540V132h7.3V139.3z M547.3,154.1H540v-7.3h7.3V154.1z M547.3,168.9H540v-7.3h7.3V168.9z M547.3,183.7H540
		v-7.3h7.3V183.7z M562.1,21.1h-7.3v-7.3h7.3V21.1z M562.1,35.9h-7.3v-7.3h7.3V35.9z M562.1,50.7h-7.3v-7.3h7.3V50.7z M562.1,65.5
		h-7.3v-7.3h7.3V65.5z M562.1,80.3h-7.3V73h7.3V80.3z M562.1,95.1h-7.3v-7.3h7.3V95.1z M562.1,109.9h-7.3v-7.3h7.3V109.9z
		 M562.1,124.7h-7.3v-7.5h7.3V124.7z M562.1,139.3h-7.3V132h7.3V139.3z M562.1,154.1h-7.3v-7.3h7.3V154.1z M562.1,168.9h-7.3v-7.3
		h7.3V168.9z M562.1,183.7h-7.3v-7.3h7.3V183.7z M576.9,21.1h-7.3v-7.3h7.3V21.1z M576.9,35.9h-7.3v-7.3h7.3V35.9z M576.9,50.7h-7.3
		v-7.3h7.3V50.7z M576.9,65.5h-7.3v-7.3h7.3V65.5z M576.9,80.3h-7.3V73h7.3V80.3z M576.9,95.1h-7.3v-7.3h7.3V95.1z M576.9,109.9
		h-7.3v-7.3h7.3V109.9z M576.9,124.7h-7.3v-7.5h7.3V124.7z M576.9,139.3h-7.3V132h7.3V139.3z M576.9,154.1h-7.3v-7.3h7.3V154.1z
		 M576.9,168.9h-7.3v-7.3h7.3V168.9z M576.9,183.7h-7.3v-7.3h7.3V183.7z M591.7,21.1h-7.3v-7.3h7.3V21.1z M591.7,35.9h-7.3v-7.3h7.3
		V35.9z M606.5,21.1h-7.3v-7.3h7.3V21.1z M606.5,35.9h-7.3v-7.3h7.3V35.9z"/>
	<path class='path' d="M628.6,21.1h-7.3v-7.3h7.3V21.1z M628.6,35.9h-7.3v-7.3h7.3V35.9z M628.6,50.7h-7.3v-7.3h7.3V50.7z M628.6,124.7h-7.3v-7.5
		h7.3V124.7z M628.6,139.3h-7.3V132h7.3V139.3z M628.6,154.1h-7.3v-7.3h7.3V154.1z M628.6,168.9h-7.3v-7.3h7.3V168.9z M628.6,183.7
		h-7.3v-7.3h7.3V183.7z M643.4,21.1h-7.3v-7.3h7.3V21.1z M643.4,35.9h-7.3v-7.3h7.3V35.9z M643.4,50.7h-7.3v-7.3h7.3V50.7z
		 M643.4,109.9h-7.3v-7.3h7.3V109.9z M643.4,124.7h-7.3v-7.5h7.3V124.7z M643.4,139.3h-7.3V132h7.3V139.3z M643.4,154.1h-7.3v-7.3
		h7.3V154.1z M643.4,168.9h-7.3v-7.3h7.3V168.9z M643.4,183.7h-7.3v-7.3h7.3V183.7z M658.2,21.1h-7.3v-7.3h7.3V21.1z M658.2,35.9
		h-7.3v-7.3h7.3V35.9z M658.2,50.7h-7.3v-7.3h7.3V50.7z M658.2,95.1h-7.3v-7.3h7.3V95.1z M658.2,109.9h-7.3v-7.3h7.3V109.9z
		 M658.2,124.7h-7.3v-7.5h7.3V124.7z M658.2,139.3h-7.3V132h7.3V139.3z M658.2,154.1h-7.3v-7.3h7.3V154.1z M658.2,168.9h-7.3v-7.3
		h7.3V168.9z M658.2,183.7h-7.3v-7.3h7.3V183.7z M673,21.1h-7.3v-7.3h7.3V21.1z M673,35.9h-7.3v-7.3h7.3V35.9z M673,80.3h-7.3V73
		h7.3V80.3z M673,95.1h-7.3v-7.3h7.3V95.1z M673,109.9h-7.3v-7.3h7.3V109.9z M673,168.9h-7.3v-7.3h7.3V168.9z M673,183.7h-7.3v-7.3
		h7.3V183.7z M687.7,21.1h-7.3v-7.3h7.3V21.1z M687.7,35.9h-7.3v-7.3h7.3V35.9z M687.7,50.7h-7.3v-7.3h7.3V50.7z M687.7,65.5h-7.3
		v-7.3h7.3V65.5z M687.7,80.3h-7.3V73h7.3V80.3z M687.7,95.1h-7.3v-7.3h7.3V95.1z M687.7,154.1h-7.3v-7.3h7.3V154.1z M687.7,168.9
		h-7.3v-7.3h7.3V168.9z M687.7,183.7h-7.3v-7.3h7.3V183.7z M702.5,21.1h-7.3v-7.3h7.3V21.1z M702.5,35.9h-7.3v-7.3h7.3V35.9z
		 M702.5,50.7h-7.3v-7.3h7.3V50.7z M702.5,65.5h-7.3v-7.3h7.3V65.5z M702.5,80.3h-7.3V73h7.3V80.3z M702.5,154.1h-7.3v-7.3h7.3
		V154.1z M702.5,168.9h-7.3v-7.3h7.3V168.9z M702.5,183.7h-7.3v-7.3h7.3V183.7z M717.3,21.1H710v-7.3h7.3V21.1z M717.3,35.9H710
		v-7.3h7.3V35.9z M717.3,50.7H710v-7.3h7.3V50.7z M717.3,65.5H710v-7.3h7.3V65.5z M717.3,154.1H710v-7.3h7.3V154.1z M717.3,168.9
		H710v-7.3h7.3V168.9z M717.3,183.7H710v-7.3h7.3V183.7z"/>
</g>
<g>
</g>
<g>
</g>
<g>
</g>
<g>
</g>
<g>
</g>
<g>
</g>
</svg>
