<?xml version="1.0" encoding="utf-8"?>
<?xml-stylesheet type="text/css" href="../css/index.css"?>
<!-- Generator: Adobe Illustrator 18.1.1, SVG Export Plug-In . SVG Version: 6.00 Build 0)  -->
<svg version="1.1" id="レイヤー_1" xmlns="http://www.w3.org/2000/svg" xmlns:xlink="http://www.w3.org/1999/xlink" x="0px"
	 y="0px" viewBox="0 0 730 153" enable-background="new 0 0 730 153" xml:space="preserve">
<g>
	<path class='path' d="M130.1,48.6c0,13.2-7.4,21.6-22.1,25.1l4.5,1.8c9.4,3.7,15.5,8.7,18.5,14.8c2.3,4.7,3.4,9.6,3.4,14.6
		c0,11.4-4.1,20.3-12.3,26.6c-8.2,6.3-19.7,9.5-34.5,9.5c-4.7,0-9.6-0.2-14.8-0.5l-12.8-0.9c-3.4-0.2-7-0.4-11-0.4
		c-2.9,0-7.1,0.3-12.6,0.9c-5.5,0.6-9.5,0.9-11.9,0.9h-1.4c-3.8,0-6.9-1.2-9.3-3.6c-2.3-2.4-3.5-5.6-3.5-9.5c0-3.4,0.9-6.2,2.8-8.5
		c1.9-2.3,4.2-3.4,6.9-3.4c1.1,0,2.5,0.2,4.4,0.6c1.9,0.4,3.3,0.6,4.2,0.6c3.2,0,4.9-4.1,4.9-12.2V55c0-8-1.6-12.1-4.9-12.1
		c-1,0-2.4,0.2-4.2,0.6c-1.9,0.4-3.3,0.6-4.4,0.6c-2.8,0-5.1-1.1-6.9-3.4c-1.9-2.3-2.8-5.1-2.8-8.5c0-4,1.2-7.2,3.5-9.6
		c2.3-2.5,5.4-3.7,9.3-3.7c0.2,0,0.5,0,0.7,0c0.4,0.1,0.6,0.2,0.7,0.2l12.8,1.3C41,20.8,45.8,21,51.8,21c4.7,0,8.4-0.1,11.2-0.4
		l12.2-1.2C78,19.2,82,19,87.3,19c7.9,0,15.1,0.8,21.4,2.5c6.4,1.7,11.5,5,15.5,10C128.1,36.6,130.1,42.2,130.1,48.6z M64.6,60.8
		c0,2.4,0.5,3.9,1.4,4.5c0.6,0.5,2.1,0.7,4.5,0.7h5.6c6.2,0,11.2-1.1,14.9-3.4c3.7-2.3,5.5-5.4,5.5-9.2c0-8.1-6.2-12.1-18.7-12.1
		c-4.6,0-7.7,0.4-9.4,1.1c-2.5,1.2-3.8,3.8-3.8,7.8V60.8z M100.8,103.6c0-4.9-2.2-8.9-6.7-11.9c-4.4-3-10.3-4.5-17.6-4.5h-5.4
		c-2.6,0-4.4,0.4-5.2,1.2c-0.8,0.8-1.3,2.2-1.3,4.4V106c0,4.6,1.3,7.7,4,9.5c2.6,1.7,7.4,2.6,14.4,2.6c5.3,0,9.6-1.3,12.9-4
		C99.1,111.4,100.8,108,100.8,103.6z"/>
	<path class='path' d="M227.1,143.1c-9.8,0-16.4-4-19.8-11.9c-8.4,7.9-18.4,11.9-29.9,11.9c-9.5,0-17-2.5-22.7-7.5c-5.6-5-8.5-11.6-8.5-19.9
		c0-12.6,5.5-20.8,16.4-24.5c4.7-1.6,10.1-2.9,16.2-4c8.5-1.4,14.3-3.1,17.4-4.9c3.1-1.9,4.6-4.7,4.6-8.6c0-2.8-1.2-5.1-3.5-6.9
		c-2.3-1.9-5.3-2.8-8.7-2.8c-4,0-5.9,1.3-5.9,3.8c0,0.8,0,1.7,0,2.5v0.7c0,3.4-1.4,6.2-4.2,8.5c-2.8,2.3-6.3,3.4-10.5,3.4
		c-4.8,0-8.7-1.4-11.8-4.3c-3.1-2.9-4.7-6.5-4.7-10.8c0-6.5,3.4-11.6,10.3-15.3c6.8-3.7,16.3-5.6,28.3-5.6c13,0,22.6,2,29,5.9
		c6.8,4.3,10.3,12.4,10.3,24.1v37.3c0,3.8,1,5.8,2.9,5.8c1,0,1.9,0,2.7,0c0.4,0,0.8,0,1.3,0c2.8,0,5.1,0.9,7,2.8
		c1.9,1.9,2.9,4.2,2.9,6.9c0,3.9-1.8,7.1-5.3,9.6C237.2,141.8,232.7,143.1,227.1,143.1z M200.9,104.5v-4c-0.8,0.5-6.1,2-15.7,4.5
		c-6.6,1.7-9.8,4.3-9.8,7.7c0,5.5,3.2,8.3,9.7,8.3C195.6,121.1,200.9,115.6,200.9,104.5z"/>
	<path class='path' d="M288.5,54.5v8.6c9.2-10.8,19.7-16.2,31.3-16.2c12.5,0,21.3,4.7,26.5,14c2.8,4.8,4.1,12.4,4.1,22.7v27
		c0,6.1,1.2,9.2,3.6,9.2c0.6,0,1.5-0.2,2.7-0.8c0.6-0.3,1.5-0.5,2.7-0.5c5.3,0,7.9,3.2,7.9,9.5c0,8.4-3.6,12.6-10.8,12.6
		c-1.9,0-4.8-0.2-8.6-0.7c-3.8-0.5-6.7-0.7-8.6-0.7c-3,0-6.2,0.2-9.5,0.7c-3.4,0.5-6.1,0.7-8.3,0.7c-7.1,0-10.6-3.7-10.6-11
		c0-6.4,2.5-9.7,7.4-10.1c3.2-0.2,4.9-1.7,4.9-4.5V90c0-7-0.9-11.8-2.7-14.7c-1.8-2.8-4.9-4.2-9.2-4.2c-4.9,0-9,1.7-12.2,5
		c-3.2,3.4-4.8,7.6-4.8,12.8v18.7c0,5.4,0.2,8.7,0.7,9.8c0.5,1.1,1.9,1.9,4.1,2.2c4.3,0.6,6.5,3.8,6.5,9.7c0,7.6-3.2,11.3-9.5,11.3
		c-1.8,0-4-0.2-6.7-0.5c-4.4-0.6-7.7-0.9-9.9-0.9s-5.4,0.2-9.6,0.7c-4.3,0.5-7.5,0.7-9.6,0.7c-7.6,0-11.3-4-11.3-12.1
		c0-6.7,2.9-10.1,8.6-10.1c1,0,2,0.2,3.2,0.6c1.2,0.4,2.1,0.6,2.7,0.6c2,0,3.1-3.4,3.1-10.1V80.6c0-6.8-1-10.3-3.1-10.3
		c-0.5,0-1.4,0.2-2.8,0.6c-1.4,0.4-2.4,0.6-3.2,0.6c-5.8,0-8.6-3.3-8.6-9.9c0-3.6,1-6.5,3-8.8c2-2.3,4.6-3.4,7.8-3.4
		c1,0,3,0.3,6.1,0.9c1.8,0.4,3.4,0.5,4.7,0.5c1.4,0,3.9-0.2,7.4-0.7c3.5-0.5,5.4-0.7,5.8-0.7C286.9,49.5,288.5,51.1,288.5,54.5z"/>
	<path class='path' d="M410.6,48.2c9.1,0,17.5,3.5,25.2,10.6v-13c0-4.3-1.5-6.5-4.5-6.5c-0.7,0-2.2,0.1-4.3,0.4c-1.6,0.5-3.1,0.7-4.7,0.7
		c-2.3,0-4.2-1-5.8-2.9c-1.6-1.9-2.3-4.3-2.3-7.2c0-7.7,4.1-11.5,12.2-11.5c2.6,0,4.6,0.1,5.8,0.2c4.8,0.5,8,0.7,9.7,0.7
		c1.6,0,3.8-0.1,6.8-0.4c3-0.3,5.2-0.5,6.7-0.5c3,0,5.1,0.7,6.2,2.1c1.1,1.4,1.7,4,1.7,7.7V111c0,6.2,1.1,9.2,3.4,9.2
		c0.7,0,1.6-0.3,2.7-0.8c0.7-0.3,1.7-0.5,2.9-0.5c5.2,0,7.7,3.1,7.7,9.2c0,3.7-0.9,6.8-2.7,9.1s-4.2,3.5-7.2,3.5h-1.1l-6.3-1.1
		c-1.4-0.2-3.5-0.4-6.1-0.4c-3.1,0-5.7,0.1-7.7,0.4c-3,0.4-4.6,0.5-4.9,0.5c-3.7,0-5.6-2.2-5.6-6.5V127c-6.2,10.7-15.6,16-28.1,16
		c-11,0-20.1-4.5-27.3-13.6c-7.1-9.1-10.7-20.5-10.7-34.3c0-14,3.5-25.4,10.5-34C389.9,52.5,399.2,48.2,410.6,48.2z M416.9,70.9
		c-4.4,0-8.1,2.1-10.9,6.3c-2.8,4.2-4.4,9.9-4.8,17.1v2.3c0,7.3,1.4,13.1,4.2,17.3c2.8,4.2,6.6,6.3,11.4,6.3c5.3,0,9.6-2.3,12.9-6.8
		c3.3-4.6,4.9-10.6,4.9-18.2c0-7.3-1.6-13.2-4.9-17.6C426.6,73.1,422.3,70.9,416.9,70.9z"/>
	<path class='path' d="M525.6,49.5c3.4,0,5,2.3,5,7v54.2c0,6.1,1.1,9.2,3.4,9.2c0.5,0,1.4-0.2,2.6-0.6c1.3-0.4,2.3-0.6,3.1-0.6
		c5,0,7.6,3.2,7.6,9.5c0,8.4-3.5,12.6-10.6,12.6c-1.2,0-4.6-0.3-10.1-0.9c-3.4-0.4-7.2-0.5-11.5-0.5c-2.2,0-5.3,0.2-9.5,0.7
		c-4.2,0.5-7.3,0.7-9.4,0.7c-3.2,0-5.9-1.1-7.9-3.3c-2-2.2-3.1-5.1-3.1-8.6c0-6.8,2.9-10.3,8.6-10.3l4.7,1.1
		c0.5,0.1,0.9,0.2,1.3,0.2c2.2,0,3.2-3.4,3.2-10.1V80.6c0-6.8-1-10.3-3.1-10.3c-0.4,0-1.4,0.3-3.2,0.9c-1.2,0.2-2.2,0.4-2.9,0.4
		c-5.8,0-8.6-3.4-8.6-10.1c0-3.6,1-6.5,3.1-8.7c2-2.2,4.7-3.3,8.1-3.3c1.3,0,3.2,0.2,5.8,0.5c4.2,0.6,7.6,0.9,10.1,0.9
		c2,0,4.7-0.2,7.9-0.7C523.4,49.7,525.2,49.5,525.6,49.5z M515.3,42.6c-4.4,0-8.3-1.6-11.5-4.9c-3.2-3.2-4.9-7.1-4.9-11.5
		c0-4.6,1.6-8.4,4.8-11.6c3.2-3.2,7-4.8,11.6-4.8c4.6,0,8.4,1.6,11.6,4.8c3.2,3.2,4.8,7.1,4.8,11.6c0,4.6-1.6,8.4-4.8,11.6
		C523.7,41,519.9,42.6,515.3,42.6z"/>
	<path class='path' d="M591.1,74.1v7.4v11.2l-0.5,12.1c-0.1,4-0.2,5.6-0.2,4.9c0,7.1,2.2,10.6,6.7,10.6c4.2,0,6.3-3.2,6.3-9.5c0-1,0-1.7,0-2.2
		c0-0.6,0-1.4,0-2.3c0-0.8,0-1.4,0-1.8c0-6.5,3.2-9.7,9.7-9.7c7.6,0,11.3,6.1,11.3,18.2c0,9.5-2.8,16.9-8.5,22.2
		c-5.6,5.3-13.5,8-23.6,8c-19.8,0-29.7-10.4-29.7-31.3c0-3.4,0.1-8.4,0.4-15.1c0.3-6.7,0.5-11.8,0.5-15.1v-5.8c0-3-0.3-4.9-0.8-5.7
		c-0.5-0.8-1.8-1.2-3.9-1.2H556c-2.3,0-4.1-0.9-5.6-2.6c-1.4-1.7-2.2-4-2.2-6.8c0-2.8,0.7-5.1,2.2-7.1c1.5-2,3.3-3,5.3-3h3.4
		c2.9,0,4.6-0.8,5-2.5c0.4-1,0.5-2.6,0.5-4.9v-8.8c0-4.2,1.1-7.1,3.3-8.6c2.2-1.6,6.3-2.3,12.2-2.3c4.2,0,7,0.6,8.5,1.8
		c1.5,1.2,2.2,3.8,2.2,7.9v9.7c0,3.5,0.3,5.6,1,6.5c0.7,0.8,2.4,1.3,5.1,1.3h13c7.1,0,10.6,3.3,10.6,9.9c0,6.4-3.2,9.5-9.7,9.5
		h-14.8c-2.5,0-4,0.4-4.5,1.3C591.3,71,591.1,72.3,591.1,74.1z"/>
	<path class='path' d="M634.7,119.2l44.6-48.5h-18.4c-4.6,0-6.8,1.1-6.8,3.5c0,0.5,0.2,1.8,0.5,4c0,0.2,0.1,0.5,0.2,0.9c0,0.5,0,0.8,0,0.9
		c0,3-1.1,5.5-3.2,7.5c-2.2,2-4.9,3-8.1,3c-6.8,0-10.3-3.7-10.3-11c0-1.1,0.1-3.1,0.4-6.1c0.2-2.6,0.3-4.7,0.2-6.3l-0.5-9V57
		c0-5,3-7.6,8.9-7.6h2l20.5,0.4c4.2,0.2,8.7,0.4,13.7,0.4c7,0,14.8-0.2,23.5-0.7h1.8c8.8,0,13.2,4.2,13.2,12.5
		c0,4.1-1.4,7.6-4.1,10.6l-3.4,3.8l-39.2,42.9h12.1c4.6,0,7.6-0.1,8.9-0.4c3.8-0.7,5.7-2.5,5.7-5.4c0,0.7,0-1.1,0-5.4v-1.1
		c0-6.7,3.5-10.1,10.6-10.1c7.2,0,10.8,4,10.8,12.1v3.1c-1,7.2-1.4,11-1.4,11.3c0,1.2,0.2,2.9,0.7,5.1c0.5,2.2,0.7,3.9,0.7,5.1
		c0,2.6-0.7,4.4-2.2,5.4c-1.4,1-4.2,1.4-8.1,1.4h-2.3l-8.7-0.4h-13.2c-8.8-0.5-14.7-0.7-17.7-0.7c-2.7,0-6.6,0.2-11.9,0.5
		s-9.3,0.5-11.9,0.5c-3.6,0-6.5-1-8.7-3c-2.2-2-3.3-4.7-3.3-8C630.2,125.9,631.7,122.5,634.7,119.2z"/>
</g>
<g>
</g>
<g>
</g>
<g>
</g>
<g>
</g>
<g>
</g>
<g>
</g>
</svg>
